# xmcd CD database file
#
# Track frame offsets:
#	150
#	16493
#	34220
#	54394
#	73139
#	92576
#	112676
#	131380
#	147953
#	164337
#	180352
#	203255
#	223968
#	240146
#	262049
#	278567
#	294795
#	310134
#	327459
#	343515
#
# Disc length: 4737 seconds
#
# Revision: 2
# Processed by: cddbd v1.4b41PL1 Copyright (c) Steve Scherf et al.
# Submitted via: Feurio! 1.60 - http://www.feurio.com
#
DISCID=16127f14,35127f14
DTITLE=Varios - Los Exitos del Año ( Ñ Cd2)
DYEAR=1900
DGENRE=
TTITLE0=Estopa  - Me Falta El Aliento
TTITLE1=Jose El Frances  - Ya No quiero Tu Querer
TTITLE2=Niña Pastori  - Cai
TTITLE3=Camela  - No Quiero Perderte
TTITLE4=Kiko Veneno  - Coge La Guitarra
TTITLE5=Carlos Nuñez  - El Pozo De Aran
TTITLE6=Vicente Amigo  - Tres Notas Para Decir Te Quiero
TTITLE7=Manzanita  - Dimelo Bajito
TTITLE8=La Barberia Del Sur  - Alegria De Vivir
TTITLE9=Maita Vende Ca  - Loquito Por Tus Huesos
TTITLE10=Mojinos Escozios  - Soy Guay
TTITLE11=Diego Torres  - La Ultima Noche
TTITLE12=Armando Y El Expreso De Bohemia  - Pringao
TTITLE13=Siempre Asi  - Todo Vale
TTITLE14=No Me Pises Que Llevo Chanclas  - Footing Tonight
TTITLE15=Rocio Durcal  - Caricias
TTITLE16=Bertin Osborne  - Sabor A Mi
TTITLE17=Alazan  - Torero
TTITLE18=El Combo Linga  - Que Las Noches Sean Son
TTITLE19=Radio Tarifa  - Osú
EXTD=
EXTT0=
EXTT1=
EXTT2=
EXTT3=
EXTT4=
EXTT5=
EXTT6=
EXTT7=
EXTT8=
EXTT9=
EXTT10=
EXTT11=
EXTT12=
EXTT13=
EXTT14=
EXTT15=
EXTT16=
EXTT17=
EXTT18=
EXTT19=
PLAYORDER=
